:SAMPLES-PER-SECOND 30
:FRAME-RANGE 1-564
:FULLY-SPECIFIED
:DEGREES
441
root  21.3499 38.6822 -108.909 175.46 21.5116 -174.685
RightUpLeg  3.13688 0.373193 3.697
RightLeg  7.93499 -2.38666 -3.55066
RightFoot  -4.8429 -0.448907 7.31545
RightToes  -1.74624e-010 0 -3.6325e-017
Spine  11.7298 -0.162795 8.65515
Spine1  2.9716 1.93901 -2.47841
HEad  9.02935 1.08753 -7.86745
LeftShoulder1  3.46302 -5.00098 -34.6981
LeftArm  11.02 2.53741 -28.4874
LeftForeArm  -4.50239 -5.66433 -17.1845
LeftHand  -1.16889 -5.29492 12.9637
RightShoulder  5.15766 2.65512 70.5974
RightArm  19.3437 -1.01473 -4.27206
RightForeArm  9.10453 1.07349 16.4088
RightHand  1.42067 19.0899 6.184
LeftUpLeg  16.8609 11.204 25.6259
LeftLeg  13.0828 16.1023 4.95501
LeftFoot  8.16056 0.0771577 -0.738611
LeftToes  -6.43926e-010 8.38805e-011 -3.16407e-011
442
root  22.1008 38.6909 -109.329 174.616 23.2716 -174.972
RightUpLeg  4.8729 0.410355 4.41952
RightLeg  8.13163 -1.0573 -3.54118
RightFoot  -5.89383 -0.337368 6.24081
RightToes  -1.74624e-010 0 -3.6325e-017
Spine  11.4903 -0.332351 8.70037
Spine1  3.09879 1.8851 -2.68389
HEad  9.53546 2.03487 -7.40856
LeftShoulder1  3.39457 -4.81151 -34.7997
LeftArm  12.2944 3.32803 -29.4605
LeftForeArm  -4.3184 -7.12784 -16.6038
LeftHand  -1.25661 -5.65206 13.4754
RightShoulder  4.98904 2.45764 70.5659
RightArm  18.9967 -0.981312 -4.4864
RightForeArm  9.60072 0.122599 16.618
RightHand  1.6128 19.222 7.04226
LeftUpLeg  15.8081 11.064 24.9236
LeftLeg  18.2319 12.2857 4.79291
LeftFoot  1.7576 0.0537707 -0.561143
LeftToes  -6.43926e-010 8.38805e-011 -3.16407e-011
443
root  22.7632 38.6823 -109.742 173.792 25.0069 -175.351
RightUpLeg  6.48965 0.205915 4.81256
RightLeg  8.36361 0.610327 -3.50933
RightFoot  -6.9488 -0.251929 5.33166
RightToes  -1.74624e-010 0 -3.6325e-017
Spine  11.3409 -0.429682 8.82565
Spine1  3.15943 1.92752 -2.83698
HEad  9.91229 3.07812 -7.33713
LeftShoulder1  3.36611 -4.71449 -34.9324
LeftArm  12.2181 4.0345 -30.5773
LeftForeArm  -3.56564 -7.89238 -16.1709
LeftHand  -1.28748 -5.51728 13.9584
RightShoulder  4.95427 2.43898 70.3482
RightArm  18.5438 -0.683153 -4.7515
RightForeArm  10.2676 -0.583593 16.7241
RightHand  1.77253 19.1413 7.8139
LeftUpLeg  14.2954 10.427 22.9483
LeftLeg  22.6413 7.13134 3.57923
LeftFoot  -3.34054 0.0807314 -1.02485
LeftToes  -6.43926e-010 8.38805e-011 -3.16407e-011
444
root  23.3544 38.6807 -110.159 173.143 26.7069 -175.846
RightUpLeg  8.04392 -0.278819 4.79143
RightLeg  8.16253 2.55564 -3.34257
RightFoot  -7.7996 -0.193487 4.5401
RightToes  -1.74624e-010 0 -3.6325e-017
Spine  11.2208 -0.483641 9.03137
Spine1  2.95326 2.03016 -3.23621
HEad  10.2184 4.02019 -7.20007
LeftShoulder1  3.32272 -4.63683 -34.7919
LeftArm  12.0493 4.77202 -31.7931
LeftForeArm  -2.83311 -8.32346 -15.881
LeftHand  -1.32946 -5.62498 14.2645
RightShoulder  5.09963 2.63224 70.1686
RightArm  18.7688 -0.314695 -5.16447
RightForeArm  10.2066 -0.641861 16.8128
RightHand  1.7165 18.8847 7.6397
LeftUpLeg  12.2702 9.22575 19.932
LeftLeg  26.1953 4.10879 2.52805
LeftFoot  -6.03346 0.0845224 -1.0409
LeftToes  -6.43926e-010 8.38805e-011 -3.16407e-011
445
root  23.8964 38.7122 -110.57 172.613 28.249 -176.533
RightUpLeg  9.4482 -0.840283 4.36355
RightLeg  7.6962 4.62152 -3.11394
RightFoot  -8.37382 -0.156023 3.8251
RightToes  -1.74624e-010 0 -3.6325e-017
Spine  11.1069 -0.379941 8.96603
Spine1  2.66274 2.14202 -3.542
HEad  10.0374 4.89616 -7.40084
LeftShoulder1  3.27709 -4.54074 -34.7128
LeftArm  11.8762 5.51906 -32.9504
LeftForeArm  -1.89502 -8.79845 -15.5511
LeftHand  -1.40788 -5.77288 14.8873
RightShoulder  5.33198 2.9558 69.7753
RightArm  17.9379 0.482725 -5.40138
RightForeArm  11.0132 -1.1127 16.818
RightHand  1.5724 18.792 6.98869
LeftUpLeg  9.80756 7.81775 16.3064
LeftLeg  28.6534 3.493 2.4021
LeftFoot  -8.06388 0.064739 -0.569199
LeftToes  -6.43926e-010 8.38805e-011 -3.16407e-011
446
root  24.3991 38.7746 -110.981 171.941 29.7299 -177.484
RightUpLeg  10.9933 -1.15257 3.77894
RightLeg  6.91543 6.29975 -3.23842
RightFoot  -8.80604 -0.13311 3.31156
RightToes  -1.74624e-010 0 -3.6325e-017
Spine  11.3395 -0.123134 8.68128
Spine1  2.06566 2.34594 -4.10738
HEad  9.46784 5.28322 -7.52525
LeftShoulder1  3.25003 -4.49185 -34.6244
LeftArm  12.0738 6.28715 -33.8235
LeftForeArm  -0.663981 -9.32124 -15.1998
LeftHand  -1.60449 -6.07045 16.4748
RightShoulder  5.65212 3.39407 69.3535
RightArm  17.6758 1.20212 -5.62417
RightForeArm  11.356 -0.973326 16.7806
RightHand  1.48323 18.6953 6.595
LeftUpLeg  7.39556 6.30165 12.3655
LeftLeg  29.5511 4.4797 3.08218
LeftFoot  -9.20626 0.0499303 0.28923
LeftToes  -6.43926e-010 8.38805e-011 -3.16407e-011
447
root  24.8618 38.8602 -111.403 171.146 31.3918 -178.709
RightUpLeg  12.4273 -1.12329 3.08936
RightLeg  6.14223 7.89329 -3.76027
RightFoot  -9.05485 -0.122125 3.03816
RightToes  -1.74624e-010 0 -3.6325e-017
Spine  11.6177 0.366623 8.21656
Spine1  1.62114 2.73937 -4.74594
HEad  8.80061 6.09543 -7.5486
LeftShoulder1  3.21853 -4.40446 -34.6738
LeftArm  11.6248 6.86345 -34.456
LeftForeArm  -0.376757 -9.36305 -15.1199
LeftHand  -1.60807 -5.71123 17.0218
RightShoulder  6.09871 4.00573 68.8435
RightArm  17.452 1.95746 -5.75369
RightForeArm  11.5814 -0.596999 16.7031
RightHand  1.41056 18.798 6.2192
LeftUpLeg  5.20196 5.27958 8.38719
LeftLeg  28.8451 6.84984 4.40743
LeftFoot  -9.91934 0.0417819 1.43738
LeftToes  -6.43926e-010 8.38805e-011 -3.16407e-011
448
root  25.2974 38.9409 -111.812 170.436 32.9065 -179.841
RightUpLeg  13.7576 -1.02542 2.4356
RightLeg  5.31952 9.31153 -4.2796
RightFoot  -9.24404 -0.112285 2.70583
RightToes  -1.74624e-010 0 -3.6325e-017
Spine  11.8297 0.84369 7.81602
Spine1  1.31593 3.13808 -5.48326
HEad  8.06383 6.73426 -7.647
LeftShoulder1  3.1902 -4.34349 -34.6292
LeftArm  10.721 7.34235 -34.8334
LeftForeArm  0.455518 -9.10293 -15.1588
LeftHand  -1.58603 -5.47966 17.1388
RightShoulder  6.74685 4.86687 68.4116
RightArm  17.2877 2.74404 -5.75914
RightForeArm  11.4055 -0.157351 16.6275
RightHand  1.36397 18.7772 6.00394
LeftUpLeg  3.04077 4.68119 4.99367
LeftLeg  26.6759 8.60528 5.00669
LeftFoot  -10.8316 0.0581899 1.54994
LeftToes  -6.43926e-010 8.38805e-011 -3.16407e-011
449
root  25.7122 39.0063 -112.226 169.802 34.3171 179.197
RightUpLeg  15.1096 -1.11644 1.75274
RightLeg  4.42051 10.6618 -4.65107
RightFoot  -9.35107 -0.105951 2.44589
RightToes  -1.74624e-010 0 -3.6325e-017
Spine  12.121 1.28599 7.50199
Spine1  0.981183 3.53221 -6.14676
HEad  7.47006 7.54529 -7.56211
LeftShoulder1  3.17273 -4.31972 -34.5308
LeftArm  11.0415 7.83324 -34.9099
LeftForeArm  0.738577 -8.92659 -15.2757
LeftHand  -1.58011 -5.4835 17.071
RightShoulder  7.48613 5.84968 68.0133
RightArm  16.7831 3.48638 -5.63321
RightForeArm  11.4784 0.200345 16.5076
RightHand  1.33242 18.7422 5.86355
LeftUpLeg  1.29843 4.63524 2.34595
LeftLeg  22.781 8.79326 4.36068
LeftFoot  -10.5162 0.0522795 1.5159
LeftToes  -6.43926e-010 8.38805e-011 -3.16407e-011
450
root  26.1143 39.0348 -112.658 169.273 35.6637 178.449
RightUpLeg  16.4838 -1.19985 1.19311
RightLeg  3.46919 12.0219 -5.04367
RightFoot  -9.56086 -0.0989532 2.19339
RightToes  -1.74624e-010 0 -3.6325e-017
Spine  12.2955 1.69244 7.20099
Spine1  0.770166 3.88411 -6.57301
HEad  6.9178 8.90308 -7.26644
LeftShoulder1  3.14044 -4.25715 -34.4425
LeftArm  11.1143 8.30247 -34.7866
LeftForeArm  1.11154 -8.49612 -15.5084
LeftHand  -1.50722 -5.18982 16.7416
RightShoulder  8.24628 6.85296 67.7229
RightArm  16.5233 4.36861 -5.49522
RightForeArm  11.5135 0.613345 16.404
RightHand  1.3651 18.92 5.96981
LeftUpLeg  0.132889 4.62985 0.300572
LeftLeg  17.4173 8.67633 3.36223
LeftFoot  -9.04383 0.0252534 1.45242
LeftToes  -6.43926e-010 8.38805e-011 -3.16407e-011
451
root  26.517 39.0232 -113.131 168.848 36.8682 177.97
RightUpLeg  17.9635 -1.36698 0.713884
RightLeg  2.53101 13.3034 -5.34401
RightFoot  -9.95475 -0.091954 2.0191
RightToes  -1.74624e-010 0 -3.6325e-017
Spine  12.3665 2.02756 7.06836
Spine1  0.656299 4.20479 -6.9565
HEad  6.38875 10.2475 -6.70049
LeftShoulder1  3.10968 -4.21519 -34.266
LeftArm  11.5682 8.79683 -34.5575
LeftForeArm  1.57584 -7.93394 -15.8243
LeftHand  -1.49914 -5.20311 16.6347
RightShoulder  8.91529 7.72721 67.5549
RightArm  15.5048 5.36527 -5.24968
RightForeArm  12.0083 0.728764 16.2562
RightHand  1.33627 19.0902 5.78824
LeftUpLeg  -0.439536 4.35551 -1.03672
LeftLeg  11.15 9.28552 2.1069
LeftFoot  -6.01314 -0.0327832 1.48285
LeftToes  -6.43926e-010 8.38805e-011 -3.16407e-011
452
root  26.939 38.9711 -113.652 168.66 37.8228 177.81
RightUpLeg  19.4598 -1.5218 0.464848
RightLeg  1.68756 14.2289 -5.6011
RightFoot  -10.4762 -0.0851743 1.87291
RightToes  -1.74624e-010 0 -3.6325e-017
Spine  12.0324 2.28693 6.96203
Spine1  0.840645 4.42474 -7.1212
HEad  5.90373 12.1404 -6.23337
LeftShoulder1  3.08217 -4.16689 -34.162
LeftArm  12.4453 9.29151 -34.1831
LeftForeArm  1.03991 -7.43572 -16.1778
LeftHand  -1.39935 -4.91628 15.9752
RightShoulder  9.51545 8.48199 67.5637
RightArm  15.1786 6.24111 -5.09592
RightForeArm  11.9941 1.30793 16.0957
RightHand  1.28822 19.3548 5.4958
LeftUpLeg  -0.540927 2.98632 -1.89232
LeftLeg  4.29626 11.7147 0.973401
LeftFoot  -1.39637 -0.0585694 0.770244
LeftToes  -6.43926e-010 8.38805e-011 -3.16407e-011
453
root  27.3753 38.8708 -114.217 168.673 38.5662 177.889
RightUpLeg  20.9763 -1.62619 0.406417
RightLeg  0.923794 14.91 -5.84721
RightFoot  -11.1757 -0.0781465 1.66103
RightToes  -1.74624e-010 0 -3.6325e-017
Spine  11.6156 2.49886 6.72691
Spine1  0.901344 4.51881 -6.9447
HEad  5.41494 14.3227 -5.93332
LeftShoulder1  3.04063 -4.06128 -34.1726
LeftArm  12.4364 9.89206 -33.7436
LeftForeArm  1.43667 -6.63995 -16.5473
LeftHand  -1.34424 -4.7617 15.5888
RightShoulder  10.0133 9.10996 67.5625
RightArm  14.9136 6.90229 -4.83809
RightForeArm  11.5111 2.01652 15.908
RightHand  1.31908 19.4434 5.61635
LeftUpLeg  -0.387258 2.21658 -2.37223
LeftLeg  -2.24873 13.3072 -0.024637
LeftFoot  2.58474 -0.132834 0.959579
LeftToes  -6.43926e-010 8.38805e-011 -3.16407e-011
454
root  27.8201 38.7337 -114.832 168.896 39.1183 178.136
RightUpLeg  22.2857 -1.70863 0.45513
RightLeg  0.589115 15.3238 -5.96907
RightFoot  -12.1032 -0.0722417 1.46717
RightToes  -1.74624e-010 0 -3.6325e-017
Spine  11.0989 2.64699 6.67067
Spine1  0.873671 4.59651 -6.93566
HEad  4.78823 16.6345 -5.58293
LeftShoulder1  3.01272 -3.99363 -34.1626
LeftArm  10.0887 10.7439 -33.3974
LeftForeArm  3.88198 -5.33298 -16.8139
LeftHand  -1.30584 -4.7872 15.1204
RightShoulder  10.268 9.39174 67.734
RightArm  14.7119 7.6553 -4.51575
RightForeArm  11.7201 2.50949 15.7203
RightHand  1.17531 19.6168 4.91238
LeftUpLeg  -0.459495 1.36416 -2.65833
LeftLeg  -7.0575 14.6062 -0.54026
LeftFoot  2.8891 -0.239671 1.77985
LeftToes  -6.43926e-010 8.38805e-011 -3.16407e-011
